<?xml version="1.0" encoding="UTF-8" standalone="no"?>
<svg
   xmlns:dc="http://purl.org/dc/elements/1.1/"
   xmlns:cc="http://creativecommons.org/ns#"
   xmlns:rdf="http://www.w3.org/1999/02/22-rdf-syntax-ns#"
   xmlns:svg="http://www.w3.org/2000/svg"
   xmlns="http://www.w3.org/2000/svg"
   id="svg192"
   style="clip-rule:evenodd;fill-rule:evenodd;stroke-linejoin:round;stroke-miterlimit:2"
   xml:space="preserve"
   version="1.1"
   viewBox="0 0 22.000423 7.9995799"
   height="7.9995799"
   width="22.000423"><metadata
   id="metadata198"><rdf:RDF><cc:Work
       rdf:about=""><dc:format>image/svg+xml</dc:format><dc:type
         rdf:resource="http://purl.org/dc/dcmitype/StillImage" /><dc:title></dc:title></cc:Work></rdf:RDF></metadata><defs
   id="defs196" />
    <g
   id="g172"
   transform="matrix(0.02565659,0,0,0.02537664,0.03845923,0.03803958)">
        <g
   id="g170"
   transform="translate(-228.093,-927.265)">
            <path
   id="path168"
   style="fill:#2a2a2a"
   d="M 1082.59,927.266 V 1239.5 H 228.094 V 927.266 h 57.939 c 50.871,133.514 197.078,230.054 369.311,230.054 172.232,0 318.439,-96.54 369.306,-230.054 z" />
        </g>
    </g>
    <g
   id="g176"
   transform="matrix(0.02565659,0,0,0.02537664,0.03845923,0.03803958)">
        <path
   id="path174"
   style="fill:#363636"
   d="M 0.001,275.409 V 0.001 H 57.94 c 50.871,133.514 197.078,230.054 369.311,230.054 172.232,0 318.439,-96.54 369.306,-230.054 h 57.94 v 275.408 z" />
    </g>
    <g
   id="g180"
   transform="matrix(0.02565659,0,0,0.02537664,0.03845923,0.03803958)">
        <path
   id="path178"
   style="fill:#4e4e4e"
   d="M 0.001,184.293 V 0.001 H 57.94 c 29.726,78.017 92.004,143.409 173.006,184.292 z m 854.496,0 H 623.555 C 704.557,143.41 766.834,78.018 796.557,0.001 h 57.94 z" />
    </g>
    <g
   id="g184"
   transform="matrix(0.02565659,0,0,0.02537664,0.03845923,0.03803958)">
        <path
   id="path182"
   style="fill:#6e6e6e"
   d="M 0.001,98.908 V 0.001 H 57.94 c 13.738,36.057 34.429,69.417 60.709,98.907 z m 854.496,0 H 735.851 C 762.13,69.418 782.82,36.058 796.557,0.001 h 57.94 z" />
    </g>
    <g
   id="g190"
   transform="matrix(0.02565659,0,0,0.02537664,0.03845923,0.03803958)">
        <g
   id="g188"
   transform="translate(-228.093,-927.265)">
            <path
   id="path186"
   style="fill:none;stroke:#000000;stroke-width:3px"
   d="M 1082.59,927.266 V 1239.5 H 228.094 V 927.266 h 57.939 c 50.871,133.514 197.078,230.054 369.311,230.054 172.232,0 318.439,-96.54 369.306,-230.054 z" />
        </g>
    </g>
</svg>
