<?xml version="1.0" encoding="UTF-8" standalone="no"?>
<svg
   xmlns:dc="http://purl.org/dc/elements/1.1/"
   xmlns:cc="http://creativecommons.org/ns#"
   xmlns:rdf="http://www.w3.org/1999/02/22-rdf-syntax-ns#"
   xmlns:svg="http://www.w3.org/2000/svg"
   xmlns="http://www.w3.org/2000/svg"
   xmlns:sodipodi="http://sodipodi.sourceforge.net/DTD/sodipodi-0.dtd"
   xmlns:inkscape="http://www.inkscape.org/namespaces/inkscape"
   inkscape:version="1.0beta2 (2b71d25, 2019-12-03)"
   sodipodi:docname="level_crossing.svg"
   version="1.1"
   id="svg5885"
   xml:space="preserve"
   width="20.000004"
   height="30.310482"
   viewBox="0 0 20.000004 30.310482"><sodipodi:namedview
     inkscape:current-layer="svg5885"
     inkscape:window-maximized="0"
     inkscape:window-y="23"
     inkscape:window-x="0"
     inkscape:cy="31.657552"
     inkscape:cx="41.064858"
     inkscape:zoom="7.1668501"
     showgrid="false"
     id="namedview993"
     inkscape:window-height="882"
     inkscape:window-width="1447"
     inkscape:pageshadow="2"
     inkscape:pageopacity="0"
     guidetolerance="10"
     gridtolerance="10"
     objecttolerance="10"
     borderopacity="1"
     inkscape:document-rotation="0"
     bordercolor="#666666"
     pagecolor="#ffffff" /><metadata
     id="metadata5891"><rdf:RDF><cc:Work
         rdf:about=""><dc:format>image/svg+xml</dc:format><dc:type
           rdf:resource="http://purl.org/dc/dcmitype/StillImage" /><dc:title></dc:title></cc:Work></rdf:RDF></metadata><defs
     id="defs5889" /><g
     transform="matrix(0.02407056,0,0,0.02407056,-1.4706791,-1.4683034)"
     id="g1132"><path
       id="path5899"
       style="fill:#000000;fill-opacity:1;fill-rule:evenodd;stroke:none;stroke-width:1.33333"
       d="m 365.60932,318.60396 -155.89066,90 162.88,282.09866 -162.776,281.93332 155.88533,89.99996 110.81866,-191.93329 110.004,190.54269 155.88666,-90.00002 -161.97466,-280.54266 162.07333,-280.708 -155.88533,-89.99999 -110.104,190.70799 z"
       inkscape:connector-curvature="0" /><path
       id="path5901"
       style="fill:#ffffff;fill-opacity:1;fill-rule:evenodd;stroke:none;stroke-width:1.33333"
       d="m 361.33332,313.87996 -153.39066,88.55733 166.38533,288.18799 -169.34933,293.31733 153.38533,88.55199 118.224,-204.75999 117.428,203.39599 L 747.40131,982.57328 578.84399,690.61995 746.47865,400.26529 593.09332,311.71329 476.58799,513.49996 361.33332,313.87463 Z"
       inkscape:connector-curvature="0" /><path
       id="path5903"
       style="fill:#c1121c;fill-opacity:1;fill-rule:evenodd;stroke:none;stroke-width:1.33333"
       d="m 735.99998,1320.1359 155.89066,-90 -149.99999,-259.80796 -155.688,90.34396 z"
       inkscape:connector-curvature="0" /><path
       id="path5905"
       style="fill:#c1121c;fill-opacity:1;fill-rule:evenodd;stroke:none;stroke-width:1.33333"
       d="M 366.98932,1060.4266 211.09866,970.42661 61.098665,1230.2346 l 155.890665,90 z"
       inkscape:connector-curvature="0" /><path
       id="path5907"
       style="fill:#c1121c;fill-opacity:1;fill-rule:evenodd;stroke:none;stroke-width:1.33333"
       d="m 210.99466,410.81196 155.896,-90 L 216.88533,60.999967 61.197332,151.3493 Z"
       inkscape:connector-curvature="0" /><path
       id="path5909"
       style="fill:#c1121c;fill-opacity:1;fill-rule:evenodd;stroke:none;stroke-width:1.33333"
       d="M 891.98931,151.10396 736.10398,61.103967 586.09865,320.90663 741.98931,410.90662 c 52.172,-90.37999 105.344,-182.45332 150,-259.80266 z"
       inkscape:connector-curvature="0" /></g></svg>
