<?xml version="1.0" encoding="UTF-8" standalone="no"?>
<svg
   xmlns:dc="http://purl.org/dc/elements/1.1/"
   xmlns:cc="http://creativecommons.org/ns#"
   xmlns:rdf="http://www.w3.org/1999/02/22-rdf-syntax-ns#"
   xmlns:svg="http://www.w3.org/2000/svg"
   xmlns="http://www.w3.org/2000/svg"
   id="svg8"
   version="1.1"
   viewBox="0 0 22.77348 282.39866"
   height="28.239866mm"
   width="2.277348mm">
  <defs
     id="defs2" />
  <metadata
     id="metadata5">
    <rdf:RDF>
      <cc:Work
         rdf:about="">
        <dc:format>image/svg+xml</dc:format>
        <dc:type
           rdf:resource="http://purl.org/dc/dcmitype/StillImage" />
        <dc:title></dc:title>
      </cc:Work>
    </rdf:RDF>
  </metadata>
  <g
     transform="translate(-6.0001647,-3.1875788)"
     id="layer1">
    <g
       transform="matrix(0.26458333,0,0,0.26458333,5.940435,3.186419)"
       id="g45"
       style="clip-rule:evenodd;fill-rule:evenodd;stroke-linecap:round;stroke-linejoin:round;stroke-miterlimit:1.5">
      <g
         transform="translate(-7.94824,-94.9991)"
         id="g26">
        <g
           transform="translate(-1230.54,-75.789)"
           id="g14">
          <g
             transform="matrix(1,0,0,0.982695,374.281,-195.909)"
             id="g12">
            <path
               d="m 864.93799,373.664 h 85.063 V 1324 h -85.063 z"
               style="fill:#ffffff;stroke:#000000;stroke-width:1.01px"
               id="rect10" />
          </g>
        </g>
        <g
           transform="translate(-1230.54,-75.789)"
           id="g18">
          <path
             d="m 1324.28,1001.41 v 103.77 h -42.53 v -103.77 z m -85.06,-103.762 h 42.53 v 103.762 h -42.53 z m 85.06,-103.765 v 103.765 h -42.53 V 793.883 Z m -85.06,-103.766 h 42.53 v 103.766 h -42.53 z m 85.06,-103.765 v 103.765 h -42.53 V 586.352 Z m -85.06,-103.766 h 42.53 v 103.766 h -42.53 z m 85.06,-103.766 v 103.766 h -42.53 V 378.82 Z m -85.06,-103.765 h 42.53 V 378.82 h -42.53 z m 42.53,-103.766 h 42.53 v 103.766 h -42.53 z"
             style="fill:#b63838"
             id="path16" />
        </g>
        <g
           transform="translate(-1230.54,-75.789)"
           id="g24">
          <g
             transform="matrix(0.925221,0,0,-1.76096,138.148,3244.74)"
             id="g22">
            <path
               d="M 1236.03,1140.02 1282,1215 h -91.94 z"
               style="stroke:#000000;stroke-width:1.04px"
               id="path20" />
          </g>
        </g>
      </g>
    </g>
  </g>
</svg>
