<?xml version="1.0" encoding="UTF-8" standalone="no"?>
<!DOCTYPE svg PUBLIC "-//W3C//DTD SVG 1.1//EN" "http://www.w3.org/Graphics/SVG/1.1/DTD/svg11.dtd">
<svg width="10%" height="10%" viewBox="0 0 87 1010" version="1.1" xmlns="http://www.w3.org/2000/svg" xmlns:xlink="http://www.w3.org/1999/xlink" xml:space="preserve" xmlns:serif="http://www.serif.com/" style="fill-rule:evenodd;clip-rule:evenodd;stroke-linecap:round;stroke-linejoin:round;stroke-miterlimit:1.5;">
    <g transform="matrix(1,0,0,1,-1238.72,-170.789)">
        <g>
            <g transform="matrix(1,0,0,0.982695,374.281,-195.909)">
                <rect x="864.938" y="373.664" width="85.063" height="950.336" style="fill:white;stroke:black;stroke-width:1.01px;"/>
            </g>
            <path d="M1324.28,1001.41L1324.28,1105.18L1281.75,1105.18L1281.75,1001.41L1324.28,1001.41ZM1239.22,897.648L1281.75,897.648L1281.75,1001.41L1239.22,1001.41L1239.22,897.648ZM1324.28,793.883L1324.28,897.648L1281.75,897.648L1281.75,793.883L1324.28,793.883ZM1239.22,690.117L1281.75,690.117L1281.75,793.883L1239.22,793.883L1239.22,690.117ZM1324.28,586.352L1324.28,690.117L1281.75,690.117L1281.75,586.352L1324.28,586.352ZM1239.22,482.586L1281.75,482.586L1281.75,586.352L1239.22,586.352L1239.22,482.586ZM1324.28,378.82L1324.28,482.586L1281.75,482.586L1281.75,378.82L1324.28,378.82ZM1239.22,275.055L1281.75,275.055L1281.75,378.82L1239.22,378.82L1239.22,275.055ZM1281.75,171.289L1324.28,171.289L1324.28,275.055L1281.75,275.055L1281.75,171.289Z" style="fill:rgb(182,56,56);"/>
            <g transform="matrix(0.925221,-9.15779e-18,9.15779e-18,-1,138.148,2320.18)">
                <path d="M1236.03,1140.02L1282,1215L1190.06,1215L1236.03,1140.02Z" style="stroke:black;stroke-width:1.04px;"/>
            </g>
        </g>
    </g>
</svg>
