<?xml version="1.0" encoding="UTF-8" standalone="no"?>
<svg
   xmlns:dc="http://purl.org/dc/elements/1.1/"
   xmlns:cc="http://creativecommons.org/ns#"
   xmlns:rdf="http://www.w3.org/1999/02/22-rdf-syntax-ns#"
   xmlns:svg="http://www.w3.org/2000/svg"
   xmlns="http://www.w3.org/2000/svg"
   id="svg148"
   style="clip-rule:evenodd;fill-rule:evenodd;stroke-linejoin:round;stroke-miterlimit:2"
   xml:space="preserve"
   version="1.1"
   viewBox="0 0 19.99971 105.00029"
   height="105.00029"
   width="19.99971"><metadata
   id="metadata154"><rdf:RDF><cc:Work
       rdf:about=""><dc:format>image/svg+xml</dc:format><dc:type
         rdf:resource="http://purl.org/dc/dcmitype/StillImage" /><dc:title></dc:title></cc:Work></rdf:RDF></metadata><defs
   id="defs152" />
    <g
   id="g146"
   transform="matrix(0.15432271,0,0,0.15451564,-2.4641125e-5,-1.4199187e-5)">
        <g
   id="g144"
   transform="rotate(180,64.7985,312.681)">
            <g
   id="g114"
   transform="rotate(180,63.847,289.63)">
                <path
   id="path112"
   style="fill:#ffffff;stroke:#000000;stroke-width:3px"
   d="M 126.194,35.235 H 0 l 63.097,-79.837 z" />
            </g>
            <g
   id="g118"
   transform="rotate(180,64.7985,312.681)">
                <path
   id="path116"
   style="fill:#ff0000;stroke:#000000;stroke-width:3px"
   d="M 128.097,161.173 H 80.815 V 623.861 H 80.634 L 65,678.045 49.366,623.861 H 49.185 V 161.173 H 1.903 L 65,81.337 Z" />
            </g>
            <g
   id="g122"
   transform="matrix(1,0,0,1.07018,0.41447,-447.291)">
                <rect
   id="rect120"
   style="fill:#ffffff"
   height="46.596001"
   width="32.699001"
   y="419.362"
   x="47.833" />
            </g>
            <g
   id="g126"
   transform="matrix(1,0,0,1.07018,0.41447,-344.29)">
                <rect
   id="rect124"
   style="fill:#ffffff"
   height="46.596001"
   width="32.699001"
   y="419.362"
   x="47.833" />
            </g>
            <g
   id="g130"
   transform="matrix(1,0,0,1.07018,0.41447,-246.332)">
                <rect
   id="rect128"
   style="fill:#ffffff"
   height="46.596001"
   width="32.699001"
   y="419.362"
   x="47.833" />
            </g>
            <g
   id="g134"
   transform="matrix(1,0,0,1.07018,0.41447,-144.965)">
                <rect
   id="rect132"
   style="fill:#ffffff"
   height="46.596001"
   width="32.699001"
   y="419.362"
   x="47.833" />
            </g>
            <g
   id="g138"
   transform="matrix(1,0,0,1.07018,0.41447,-46.8688)">
                <rect
   id="rect136"
   style="fill:#ffffff"
   height="46.596001"
   width="32.699001"
   y="419.362"
   x="47.833" />
            </g>
            <g
   id="g142"
   transform="translate(0.403,-56.1832)">
                <path
   id="path140"
   style="fill:none;stroke:#000000;stroke-width:3px"
   d="M 64.597,680.045 1.5,600.208 H 127.694 Z M 80.231,57.684 h 0.181 v 462.688 h 47.282 L 64.597,600.208 1.5,520.372 H 48.782 V 57.684 h 0.181 L 64.597,3.5 Z" />
            </g>
        </g>
    </g>
</svg>
