<?xml version="1.0" encoding="UTF-8" standalone="no"?>
<svg
   xmlns:dc="http://purl.org/dc/elements/1.1/"
   xmlns:cc="http://creativecommons.org/ns#"
   xmlns:rdf="http://www.w3.org/1999/02/22-rdf-syntax-ns#"
   xmlns:svg="http://www.w3.org/2000/svg"
   xmlns="http://www.w3.org/2000/svg"
   id="svg44"
   style="clip-rule:evenodd;fill-rule:evenodd;stroke-linejoin:round;stroke-miterlimit:2"
   xml:space="preserve"
   version="1.1"
   viewBox="0 0 19.99959 97.000412"
   height="97.000412"
   width="19.99959"><metadata
   id="metadata50"><rdf:RDF><cc:Work
       rdf:about=""><dc:format>image/svg+xml</dc:format><dc:type
         rdf:resource="http://purl.org/dc/dcmitype/StillImage" /><dc:title></dc:title></cc:Work></rdf:RDF></metadata><defs
   id="defs48" />
    <g
   id="g42"
   transform="matrix(0.15480316,0,0,0.15507657,-2.471784e-5,-7.7538285e-5)">
        <g
   id="g12"
   transform="translate(1.5,-20.7713)">
            <path
   id="path10"
   style="fill:#ffffff;stroke:#000000;stroke-width:3px"
   d="M 63.097,644.772 0,564.935 h 126.194 z" />
        </g>
        <g
   id="g16"
   transform="translate(0,5e-4)">
            <path
   id="path14"
   style="fill:#ff0000;stroke:#000000;stroke-width:3px"
   d="m 80.412,464.188 h 47.282 L 66.068,542.163 H 63.126 L 1.5,464.188 H 48.782 V 1.5 h 31.63 z" />
        </g>
        <g
   id="g20"
   transform="matrix(1,0,0,1.07018,0.41447,-447.291)">
            <rect
   id="rect18"
   style="fill:#ffffff"
   height="46.596001"
   width="32.699001"
   y="419.362"
   x="47.833" />
        </g>
        <g
   id="g24"
   transform="matrix(1,0,0,1.07018,0.41447,-344.29)">
            <rect
   id="rect22"
   style="fill:#ffffff"
   height="46.596001"
   width="32.699001"
   y="419.362"
   x="47.833" />
        </g>
        <g
   id="g28"
   transform="matrix(1,0,0,1.07018,0.41447,-246.332)">
            <rect
   id="rect26"
   style="fill:#ffffff"
   height="46.596001"
   width="32.699001"
   y="419.362"
   x="47.833" />
        </g>
        <g
   id="g32"
   transform="matrix(1,0,0,1.07018,0.41447,-144.965)">
            <rect
   id="rect30"
   style="fill:#ffffff"
   height="46.596001"
   width="32.699001"
   y="419.362"
   x="47.833" />
        </g>
        <g
   id="g36"
   transform="matrix(1,0,0,1.07018,0.41447,-46.8688)">
            <rect
   id="rect34"
   style="fill:#ffffff"
   height="46.596001"
   width="32.699001"
   y="419.362"
   x="47.833" />
        </g>
        <g
   id="g40"
   transform="translate(0,-1.4575)">
            <path
   id="path38"
   style="fill:none;stroke:#000000;stroke-width:3px"
   d="M 64.597,625.319 1.5,545.482 H 127.694 Z M 48.782,465.646 V 2.958 h 31.63 v 462.688 h 47.282 L 64.597,545.482 1.5,465.646 Z" />
        </g>
    </g>
</svg>
