<?xml version="1.0" encoding="UTF-8" standalone="no"?>
<svg
   xmlns:serif="http://www.serif.com/"
   xmlns:dc="http://purl.org/dc/elements/1.1/"
   xmlns:cc="http://creativecommons.org/ns#"
   xmlns:rdf="http://www.w3.org/1999/02/22-rdf-syntax-ns#"
   xmlns:svg="http://www.w3.org/2000/svg"
   xmlns="http://www.w3.org/2000/svg"
   id="svg142"
   style="clip-rule:evenodd;fill-rule:evenodd;stroke-linejoin:round;stroke-miterlimit:2"
   xml:space="preserve"
   version="1.1"
   viewBox="0 0 22 19.343487"
   height="19.343487"
   width="22"><metadata
   id="metadata148"><rdf:RDF><cc:Work
       rdf:about=""><dc:format>image/svg+xml</dc:format><dc:type
         rdf:resource="http://purl.org/dc/dcmitype/StillImage" /><dc:title></dc:title></cc:Work></rdf:RDF></metadata><defs
   id="defs146" />
    <g
   id="g140"
   transform="matrix(1.3253108,0,0,1.3253108,0.06621197,0.06616509)">
        <g
   id="g138">
            <g
   transform="matrix(0.0601685,0,0,0.0601685,-0.277819,-1.27989)"
   id="path11">
                <path
   id="path134"
   style="fill:#4a4a4a;stroke:#000000;stroke-width:1.66px"
   d="m 236.767,68.965 14.175,14.174 27.905,55.967 -55.967,-27.905 -13.677,-13.677 -54.712,56.688 89.369,86.339 c 2.182,2.108 2.318,5.557 0.309,7.831 -3.868,4.379 -8.01,8.521 -12.389,12.389 -2.273,2.009 -5.723,1.873 -7.831,-0.309 l -86.044,-89.065 -85.96,89.061 c -2.107,2.184 -5.558,2.321 -7.833,0.311 -4.377,-3.868 -8.518,-8.008 -12.385,-12.385 -2.01,-2.274 -1.873,-5.726 0.311,-7.833 L 121.394,154.306 62.21,93.042 C 51.539,105.041 42.515,118.544 35.46,133.198 L 4.617,106.363 C 24.176,70.419 53.764,40.855 89.673,21.272 L 116.494,52.11 C 101.873,59.151 88.407,68.161 76.44,78.811 l 61.559,59.469 56.973,-54.987 -32.224,-32.224 28.062,-28.062 32.721,32.722 4.075,-3.934 13.097,13.091 z" />
            </g>
            <path
   style="fill:#311911;stroke:#000000;stroke-width:0.1px"
   d="m 4.322,3.462 3.703,3.578 3.412,-3.292 0.863,0.85 -3.282,3.401 5.377,5.195 c 0.131,0.127 0.139,0.334 0.018,0.471 -0.232,0.263 -0.482,0.513 -0.745,0.745 -0.137,0.121 -0.344,0.113 -0.471,-0.018 L 8.02,9.033 2.848,14.391 C 2.721,14.523 2.513,14.531 2.376,14.41 2.113,14.177 1.864,13.928 1.631,13.665 1.51,13.528 1.518,13.321 1.65,13.194 L 7.026,8.005 3.507,4.362 c 0,0 0.794,-0.872 0.815,-0.9 H 4.321 c 0.001,-0.001 0.001,-0.001 0.001,0 z m 8.868,-1.406 0.227,-0.219 0.788,0.787 -0.219,0.227 z"
   serif:id="path11"
   id="path111" />
        </g>
    </g>
</svg>
