<?xml version="1.0" encoding="UTF-8" standalone="no"?>
<svg
   xmlns:dc="http://purl.org/dc/elements/1.1/"
   xmlns:cc="http://creativecommons.org/ns#"
   xmlns:rdf="http://www.w3.org/1999/02/22-rdf-syntax-ns#"
   xmlns:svg="http://www.w3.org/2000/svg"
   xmlns="http://www.w3.org/2000/svg"
   width="22.000002"
   height="16.999994"
   viewBox="0 0 22.000002 16.999992"
   version="1.1"
   xml:space="preserve"
   style="clip-rule:evenodd;fill-rule:evenodd;stroke-linecap:round;stroke-linejoin:round;stroke-miterlimit:1.5"
   id="svg40"><metadata
   id="metadata46"><rdf:RDF><cc:Work
       rdf:about=""><dc:format>image/svg+xml</dc:format><dc:type
         rdf:resource="http://purl.org/dc/dcmitype/StillImage" /><dc:title></dc:title></cc:Work></rdf:RDF></metadata><defs
   id="defs44" />
    <g
   transform="matrix(0.02799895,0,0,0.02850049,-3.9472104,-2.2462148)"
   id="g38">
        <g
   id="g36">
            <g
   transform="matrix(0.847447,0,0,0.657293,173.368,208.29)"
   id="g20">
                <path
   d="M 644.172,114.733 887.197,708.214 H 401.147 Z"
   style="fill:#888888"
   id="path18" />
            </g>
            <g
   transform="matrix(0.274174,0,0,0.212654,542.655,259.304)"
   id="g24">
                <path
   d="M 644.172,114.733 887.197,708.214 H 401.147 Z"
   style="fill:#ffffff"
   id="path22" />
            </g>
            <g
   transform="matrix(1.16524,0,0,1,-324.954,-34.4198)"
   id="g28">
                <path
   d="M 644.172,114.733 887.197,708.214 H 401.147 Z"
   style="fill:#6d6d6d"
   id="path26" />
            </g>
            <g
   transform="matrix(0.399334,0,0,0.342707,169.857,40.9933)"
   id="g32">
                <path
   d="M 644.172,114.733 887.197,708.214 H 401.147 Z"
   style="fill:#ffffff"
   id="path30" />
            </g>
            <path
   d="M 616.021,479.267 719.27,283.703 925.221,673.794 H 513.319 142.477 L 425.658,80.313 Z"
   style="fill:none;stroke:#000000;stroke-width:3px"
   id="path34" />
        </g>
    </g>
</svg>
