<?xml version="1.0" encoding="UTF-8" standalone="no"?>
<svg
   xmlns:dc="http://purl.org/dc/elements/1.1/"
   xmlns:cc="http://creativecommons.org/ns#"
   xmlns:rdf="http://www.w3.org/1999/02/22-rdf-syntax-ns#"
   xmlns:svg="http://www.w3.org/2000/svg"
   xmlns="http://www.w3.org/2000/svg"
   id="svg40"
   style="clip-rule:evenodd;fill-rule:evenodd;stroke-linecap:round;stroke-linejoin:round;stroke-miterlimit:1.5"
   xml:space="preserve"
   version="1.1"
   viewBox="0 0 22.000399 7.999608"
   height="7.999608"
   width="22.000399"><metadata
   id="metadata46"><rdf:RDF><cc:Work
       rdf:about=""><dc:format>image/svg+xml</dc:format><dc:type
         rdf:resource="http://purl.org/dc/dcmitype/StillImage" /><dc:title></dc:title></cc:Work></rdf:RDF></metadata><defs
   id="defs44" />
    <g
   id="g38"
   transform="matrix(0.02563889,0,0,0.02537673,0.00897361,0)">
        <g
   id="g36">
            <g
   id="g12"
   transform="matrix(0.961835,0,0,0.806316,17.1906,45.917)">
                <rect
   id="rect10"
   style="fill:#0013ff"
   height="273.15701"
   width="889.01599"
   y="-36.084999"
   x="-16.677" />
            </g>
            <path
   id="path14"
   style="fill:#0042ff"
   d="M 1.15,16.821 H 856.237 V 155.987 H 1.15 v 81.085 z" />
            <rect
   id="rect16"
   style="fill:#0069fe"
   height="51.181"
   width="855.08698"
   y="16.820999"
   x="1.15" />
            <g
   id="g20"
   transform="translate(-226.594,-925.766)">
                <path
   id="path18"
   style="fill:#2a2a2a"
   d="M 1082.59,927.266 V 1239.5 H 228.094 V 927.266 h 57.939 c 50.871,133.514 197.078,230.054 369.311,230.054 172.232,0 318.439,-96.54 369.306,-230.054 z" />
            </g>
            <g
   id="g24"
   transform="translate(1.499,1.499)">
                <path
   id="path22"
   style="fill:#363636"
   d="M 0.001,275.409 V 0.001 H 57.94 c 50.871,133.514 197.078,230.054 369.311,230.054 172.232,0 318.439,-96.54 369.306,-230.054 h 57.94 v 275.408 z" />
            </g>
            <g
   id="g28"
   transform="translate(1.499,1.499)">
                <path
   id="path26"
   style="fill:#4e4e4e"
   d="M 0.001,184.293 V 0.001 H 57.94 c 29.726,78.017 92.004,143.409 173.006,184.292 z m 854.496,0 H 623.555 C 704.557,143.41 766.834,78.018 796.557,0.001 h 57.94 z" />
            </g>
            <g
   id="g32"
   transform="translate(1.499,1.499)">
                <path
   id="path30"
   style="fill:#6e6e6e"
   d="M 0.001,98.908 V 0.001 H 57.94 c 13.738,36.057 34.429,69.417 60.709,98.907 z m 854.496,0 H 735.851 C 762.13,69.418 782.82,36.058 796.557,0.001 h 57.94 z" />
            </g>
            <path
   id="path34"
   style="fill:none;stroke:#000000;stroke-width:3px"
   d="M 1.5,16.821 V 1.5 h 57.939 c 1.967,5.163 4.077,10.272 6.326,15.321 H 791.73 c 2.249,-5.049 4.359,-10.158 6.326,-15.321 h 57.94 v 15.321 h 0.241 v 220.251 h -0.241 v 76.662 H 1.5 V 237.072 H 1.15 V 16.821 Z" />
        </g>
    </g>
</svg>
